<svg width="87" height="76" viewBox="0 0 87 76" fill="none" xmlns="http://www.w3.org/2000/svg">
<ellipse rx="11.7641" ry="10.8161" transform="matrix(0.996994 -0.0774738 0.0794567 0.996838 73.4418 11.6935)" fill="#483A9E"/>
<ellipse rx="11.7641" ry="10.8161" transform="matrix(0.996994 -0.0774738 0.0794567 0.996838 12.5882 13.2956)" fill="#483A9E"/>
<rect width="4.96291" height="19.2627" rx="2.48146" transform="matrix(0.924152 -0.382024 0.383343 0.923606 58.8329 54.7788)" fill="#483A9E"/>
<rect width="4.96291" height="19.2654" rx="2.48145" transform="matrix(0.924136 0.382065 -0.397434 0.917631 23.9161 52.9392)" fill="#483A9E"/>
<path d="M76.4495 37.6531C76.4495 55.4004 62.0305 69.8063 44.2203 69.8063C26.4101 69.8063 11.991 55.4004 11.991 37.6531C11.991 19.9059 26.4101 5.5 44.2203 5.5C62.0305 5.5 76.4495 19.9059 76.4495 37.6531Z" fill="#483A9E" stroke="#FFF8F8" stroke-width="11"/>
<ellipse cx="44.2203" cy="37.6531" rx="2.48219" ry="2.47718" fill="white"/>
<rect width="4.96291" height="24.7791" rx="2.48146" transform="matrix(0.924152 -0.382024 0.383343 0.923606 31.8118 18.7168)" fill="white"/>
<rect x="62.3403" y="36.4146" width="4.95436" height="19.3611" rx="2.47718" transform="rotate(90 62.3403 36.4146)" fill="white"/>
</svg>
